<svg xmlns="http://www.w3.org/2000/svg" xmlns:xlink="http://www.w3.org/1999/xlink" width="600" height="600" viewBox="0 0 600 600">
  <defs>
    <clipPath id="clip-Design_1">
      <rect width="600" height="600"/>
    </clipPath>
  </defs>
  <g id="Design_1" data-name="Design 1" clip-path="url(#clip-Design_1)">
    <rect width="600" height="600" fill="#f9f9f9"/>
    <g id="Group_9" data-name="Group 9" transform="translate(-14 -170)">
      <g id="Group_3" data-name="Group 3" transform="translate(-126)">
        <g id="Group_2" data-name="Group 2">
          <rect id="Rectangle_9" data-name="Rectangle 9" width="210" height="150" rx="3" transform="translate(334 318)" fill="#fff"/>
          <line id="Line_1" data-name="Line 1" x2="19" transform="translate(506.5 336.5)" fill="none" stroke="#707070" stroke-linecap="round" stroke-width="5"/>
          <line id="Line_2" data-name="Line 2" y1="17" transform="translate(525.5 336.5)" fill="none" stroke="#707070" stroke-linecap="round" stroke-width="5"/>
          <line id="Line_3" data-name="Line 3" y1="3" transform="translate(525.5 366.5)" fill="none" stroke="#707070" stroke-linecap="round" stroke-width="5"/>
          <g id="Group_1" data-name="Group 1">
            <g id="Rectangle_2" data-name="Rectangle 2" transform="translate(361 350)" fill="#f9f9f9" stroke="#707070" stroke-width="5">
              <rect width="45" height="180" rx="5" stroke="none"/>
              <rect x="2.5" y="2.5" width="40" height="175" rx="2.5" fill="none"/>
            </g>
            <line id="Line_4" data-name="Line 4" x2="16" transform="translate(364.5 372.5)" fill="none" stroke="#707070" stroke-linecap="round" stroke-width="5"/>
            <line id="Line_5" data-name="Line 5" x2="16" transform="translate(364.5 403.5)" fill="none" stroke="#707070" stroke-linecap="round" stroke-width="5"/>
            <line id="Line_6" data-name="Line 6" x2="16" transform="translate(364.5 439.5)" fill="none" stroke="#707070" stroke-linecap="round" stroke-width="5"/>
            <line id="Line_7" data-name="Line 7" x2="16" transform="translate(364.5 471.5)" fill="none" stroke="#707070" stroke-linecap="round" stroke-width="5"/>
            <line id="Line_8" data-name="Line 8" x2="16" transform="translate(364.5 507.5)" fill="none" stroke="#707070" stroke-linecap="round" stroke-width="5"/>
          </g>
          <g id="Subtraction_2" data-name="Subtraction 2" transform="translate(448.914 423.425)" fill="#f9f9f9">
            <path d="M 68.08409881591797 89.08167266845703 L 4.223477840423584 25.2219295501709 L 2.893840074539185 21.56761169433594 L 15.41303539276123 9.048416137695313 L 19.0988941192627 10.39713764190674 L 82.93376922607422 74.23200988769531 L 68.08409881591797 89.08167266845703 Z" stroke="none"/>
            <path d="M 68.08406829833984 85.54615783691406 L 79.39822387695313 74.23200225830078 L 17.72142791748047 12.55520153045654 L 16.05248069763184 11.94450187683105 L 5.787676334381104 22.20931816101074 L 6.383246898651123 23.84616470336914 L 68.08406829833984 85.54615783691406 M 68.0841064453125 92.61720275878906 L 2.063703536987305 26.59769248962402 L 1.113375128625194e-05 20.92590713500977 L 14.77359580993652 6.152307987213135 L 20.47636413574219 8.239062309265137 L 86.46930694580078 74.23200225830078 L 68.08501434326172 92.61629486083984 L 68.0841064453125 92.61720275878906 Z" stroke="none" fill="#707070"/>
          </g>
          <g id="Polygon_2" data-name="Polygon 2" transform="translate(431.202 430.245) rotate(-45)" fill="#f9f9f9" stroke-linecap="square">
            <path d="M 22.08274269104004 25.49597549438477 L 3.91725754737854 25.49597549438477 L 13 5.935954570770264 L 22.08274269104004 25.49597549438477 Z" stroke="none"/>
            <path d="M 13 11.87194442749023 L 7.834529876708984 22.99597549438477 L 18.16547012329102 22.99597549438477 L 13 11.87194442749023 M 13 -3.814697265625e-06 L 26 27.99597549438477 L 0 27.99597549438477 L 13 -3.814697265625e-06 Z" stroke="none" fill="#707070"/>
          </g>
          <g id="Rectangle_4" data-name="Rectangle 4" transform="translate(513.77 512.814) rotate(-45)" fill="#f9f9f9" stroke="#707070" stroke-width="5">
            <path d="M0,0H26a0,0,0,0,1,0,0V15a7,7,0,0,1-7,7H7a7,7,0,0,1-7-7V0A0,0,0,0,1,0,0Z" stroke="none"/>
            <path d="M5,2.5H21A2.5,2.5,0,0,1,23.5,5V15A4.5,4.5,0,0,1,19,19.5H7A4.5,4.5,0,0,1,2.5,15V5A2.5,2.5,0,0,1,5,2.5Z" fill="none"/>
          </g>
          <line id="Line_9" data-name="Line 9" x1="14" transform="translate(334.5 465.5)" fill="none" stroke="#757575" stroke-linecap="round" stroke-width="5"/>
          <line id="Line_10" data-name="Line 10" y2="147" transform="translate(334.5 318.5)" fill="none" stroke="#757575" stroke-linecap="round" stroke-width="5"/>
          <line id="Line_11" data-name="Line 11" x2="210" transform="translate(334.5 318.5)" fill="none" stroke="#757575" stroke-linecap="round" stroke-width="5"/>
          <line id="Line_12" data-name="Line 12" y1="150" transform="translate(544.5 318.5)" fill="none" stroke="#757575" stroke-linecap="round" stroke-width="5"/>
          <line id="Line_13" data-name="Line 13" x1="26" transform="translate(518.5 468.5)" fill="none" stroke="#757575" stroke-linecap="round" stroke-width="5"/>
          <line id="Line_14" data-name="Line 14" x2="38" transform="translate(416.5 465.5)" fill="none" stroke="#757575" stroke-linecap="round" stroke-width="5"/>
        </g>
        <text id="Black_Ink_Solutions" data-name="Black Ink Solutions" transform="translate(270 588)" fill="#707070" font-size="37" font-family="Arial-BoldMT, Arial" font-weight="700"><tspan x="0" y="0">Black Ink Solutions</tspan></text>
        <text id="From_Paper_to_Production" data-name="From Paper to Production" transform="translate(327 617)" fill="#707070" font-size="20" font-family="SegoeUI, Segoe UI"><tspan x="0" y="0">From Paper to Production</tspan></text>
      </g>
    </g>
  </g>
</svg>
